/* XPM */
static char * xadrez_xpm[] = {
"64 64 366 2",
"  	c None",
". 	c #0A0A0A",
"+ 	c #555555",
"@ 	c #000000",
"# 	c #737373",
"$ 	c #C9C9C9",
"% 	c #0B0A0A",
"& 	c #090909",
"* 	c #686868",
"= 	c #E6E6E6",
"- 	c #C8C8C8",
"; 	c #181818",
"> 	c #50504F",
", 	c #7D7D7D",
"' 	c #757575",
") 	c #E3E3E3",
"! 	c #010101",
"~ 	c #1A1A1A",
"{ 	c #565555",
"] 	c #909090",
"^ 	c #D2D2D2",
"/ 	c #A9A9A9",
"( 	c #0E0E0E",
"_ 	c #020202",
": 	c #323231",
"< 	c #444344",
"[ 	c #464646",
"} 	c #040404",
"| 	c #666666",
"1 	c #C7C7C7",
"2 	c #535353",
"3 	c #8A8A8A",
"4 	c #B0B0B0",
"5 	c #050505",
"6 	c #282828",
"7 	c #525252",
"8 	c #989998",
"9 	c #434343",
"0 	c #040303",
"a 	c #0F0E0E",
"b 	c #171717",
"c 	c #030303",
"d 	c #1C1C1C",
"e 	c #8E8E8E",
"f 	c #AFAFAF",
"g 	c #7A7A7A",
"h 	c #1F1F1F",
"i 	c #232323",
"j 	c #4A4949",
"k 	c #6A6A6A",
"l 	c #6E6E6D",
"m 	c #2C2C2C",
"n 	c #4A4A49",
"o 	c #838383",
"p 	c #727372",
"q 	c #383838",
"r 	c #0B0B0B",
"s 	c #060606",
"t 	c #494949",
"u 	c #BFBFBF",
"v 	c #CECECE",
"w 	c #4D4D4D",
"x 	c #3B3B3B",
"y 	c #202020",
"z 	c #2B2B2B",
"A 	c #474747",
"B 	c #636363",
"C 	c #808080",
"D 	c #A0A0A0",
"E 	c #BEBEBE",
"F 	c #393939",
"G 	c #D7D7D7",
"H 	c #CBCBCB",
"I 	c #B7B7B7",
"J 	c #DDDDDD",
"K 	c #949494",
"L 	c #161616",
"M 	c #0C0C0C",
"N 	c #1B1B1B",
"O 	c #0D0D0D",
"P 	c #2A2A2A",
"Q 	c #474646",
"R 	c #7F7F7F",
"S 	c #9B9C9B",
"T 	c #B9B9B9",
"U 	c #DFDFDF",
"V 	c #C4C4C4",
"W 	c #F7F7F7",
"X 	c #F1F1F1",
"Y 	c #4C4C4C",
"Z 	c #B5B5B5",
"` 	c #ECECEC",
" .	c #6D6D6D",
"..	c #141414",
"+.	c #222222",
"@.	c #121212",
"#.	c #292A29",
"$.	c #626262",
"%.	c #9C9B9B",
"&.	c #B8B8B8",
"*.	c #D4D4D4",
"=.	c #FAFAFA",
"-.	c #DADADA",
";.	c #646464",
">.	c #818181",
",.	c #4E4E4E",
"'.	c #B2B2B3",
").	c #F4F4F4",
"!.	c #CACACA",
"~.	c #111111",
"{.	c #292929",
"].	c #454545",
"^.	c #7E7E7E",
"/.	c #9B9B9A",
"(.	c #FFFFFF",
"_.	c #9E9E9E",
":.	c #858585",
"<.	c #AEAEAE",
"[.	c #FEFEFE",
"}.	c #565656",
"|.	c #0F0F0F",
"1.	c #070707",
"2.	c #616161",
"3.	c #7E7D7E",
"4.	c #9A9A9A",
"5.	c #D3D3D3",
"6.	c #F1F0F1",
"7.	c #5D5D5D",
"8.	c #FCFCFC",
"9.	c #B8B8B9",
"0.	c #F3F3F3",
"a.	c #444444",
"b.	c #CCCCCC",
"c.	c #0B0B0C",
"d.	c #444545",
"e.	c #999999",
"f.	c #F0F0F0",
"g.	c #CFCFCF",
"h.	c #313131",
"i.	c #373737",
"j.	c #BBBBBB",
"k.	c #DCDCDC",
"l.	c #828282",
"m.	c #272727",
"n.	c #9B9B9B",
"o.	c #BDBDBD",
"p.	c #2D2D2C",
"q.	c #191919",
"r.	c #606060",
"s.	c #B6B6B6",
"t.	c #3A3A3A",
"u.	c #979797",
"v.	c #242424",
"w.	c #080808",
"x.	c #7C7C7C",
"y.	c #989898",
"z.	c #D2D2D1",
"A.	c #EFEFEF",
"B.	c #656565",
"C.	c #6C6C6C",
"D.	c #363636",
"E.	c #353636",
"F.	c #262626",
"G.	c #5F5F5F",
"H.	c #989999",
"I.	c #B5B5B4",
"J.	c #D1D1D1",
"K.	c #F6F6F6",
"L.	c #E0E0E0",
"M.	c #DCDDDD",
"N.	c #EAEBEB",
"O.	c #676767",
"P.	c #919191",
"Q.	c #101010",
"R.	c #424242",
"S.	c #5F5E5F",
"T.	c #7B7B7B",
"U.	c #979898",
"V.	c #B5B4B5",
"W.	c #EEEEEE",
"X.	c #BABABA",
"Y.	c #D8D8D8",
"Z.	c #BDBDBC",
"`.	c #363736",
" +	c #969697",
".+	c #252525",
"++	c #5E5E5E",
"@+	c #7A7B7A",
"#+	c #B4B4B4",
"$+	c #D0D0D0",
"%+	c #F8F8F8",
"&+	c #3E3E3E",
"*+	c #959595",
"=+	c #C6C6C6",
"-+	c #4A4A4A",
";+	c #414141",
">+	c #969696",
",+	c #B3B3B4",
"'+	c #EDEDED",
")+	c #343434",
"!+	c #FBFBFB",
"~+	c #FDFDFD",
"{+	c #F5F5F5",
"]+	c #242425",
"^+	c #7A797A",
"/+	c #969796",
"(+	c #B3B3B3",
"_+	c #EDEDEC",
":+	c #6B6B6B",
"<+	c #D4D5D4",
"[+	c #30302F",
"}+	c #242423",
"|+	c #404040",
"1+	c #797979",
"2+	c #959695",
"3+	c #B2B2B2",
"4+	c #CFCECF",
"5+	c #787878",
"6+	c #323131",
"7+	c #5C5C5C",
"8+	c #EBEBEB",
"9+	c #A6A6A6",
"0+	c #212121",
"a+	c #2E2E2E",
"b+	c #080707",
"c+	c #3F3F3F",
"d+	c #B1B1B1",
"e+	c #C5C5C5",
"f+	c #8F8F8F",
"g+	c #2F2F2F",
"h+	c #4F4F4F",
"i+	c #696969",
"j+	c #5B5B5B",
"k+	c #777877",
"l+	c #939494",
"m+	c #D5D5D5",
"n+	c #ABABAB",
"o+	c #D6D6D6",
"p+	c #D9D9D9",
"q+	c #E9E9E9",
"r+	c #323232",
"s+	c #2E2F2E",
"t+	c #4E4F4E",
"u+	c #6F6F6F",
"v+	c #848484",
"w+	c #777777",
"x+	c #939393",
"y+	c #B2B2B1",
"z+	c #3D3D3D",
"A+	c #767676",
"B+	c #DEDEDE",
"C+	c #060506",
"D+	c #1E1E1E",
"E+	c #575757",
"F+	c #A7A7A7",
"G+	c #A5A5A5",
"H+	c #BCBCBC",
"I+	c #E8E8E7",
"J+	c #8B8B8B",
"K+	c #6F6F70",
"L+	c #131313",
"M+	c #2A2929",
"N+	c #303030",
"O+	c #434344",
"P+	c #5E5F5F",
"Q+	c #D5D4D5",
"R+	c #E8E8E8",
"S+	c #F9F9F9",
"T+	c #8A8989",
"U+	c #393838",
"V+	c #2E2E2F",
"W+	c #4E4E4F",
"X+	c #888888",
"Y+	c #545454",
"Z+	c #454544",
"`+	c #707070",
" @	c #888989",
".@	c #A3A2A2",
"+@	c #505050",
"@@	c #9D9D9D",
"#@	c #5A5A5A",
"$@	c #2F2E2E",
"%@	c #4F4E4E",
"&@	c #434342",
"*@	c #A3A3A2",
"=@	c #8C8C8C",
"-@	c #F8F7F7",
";@	c #646465",
">@	c #0E0E0F",
",@	c #434243",
"'@	c #A2A2A3",
")@	c #5B5A5A",
"!@	c #D1D2D1",
"~@	c #434443",
"{@	c #A2A3A3",
"]@	c #2D2D2D",
"^@	c #060605",
"/@	c #070708",
"(@	c #929292",
"_@	c #2E2F2F",
":@	c #4E4F4F",
"<@	c #6E6E6E",
"[@	c #D2D3D3",
"}@	c #E2E2E2",
"|@	c #DBDBDB",
"1@	c #E7E7E7",
"2@	c #D2D2D3",
"3@	c #F2F2F2",
"4@	c #E4E4E4",
"5@	c #D8D9D9",
"6@	c #424342",
"7@	c #A3A3A3",
"8@	c #E1E1E1",
"9@	c #9F9F9F",
"0@	c #A2A2A2",
"a@	c #A1A1A1",
"b@	c #AAAAAA",
"c@	c #434242",
"d@	c #B5B6B6",
"e@	c #C0C0C0",
"f@	c #E2E2E1",
"g@	c #A3A2A3",
"h@	c #717171",
"i@	c #EAEAEA",
"j@	c #8F8E8E",
"k@	c #262625",
"l@	c #424343",
"m@	c #878787",
"n@	c #ECECED",
"o@	c #CDCDCD",
"p@	c #696968",
"q@	c #C7C7C6",
"r@	c #929293",
"s@	c #4B4B4B",
"t@	c #545453",
"u@	c #888889",
"v@	c #868686",
"w@	c #E5E5E5",
"x@	c #F3F2F2",
"y@	c #333333",
"z@	c #010102",
"A@	c #444243",
"B@	c #353535",
"C@	c #515152",
"D@	c #373738",
"E@	c #747474",
"F@	c #737474",
"G@	c #717070",
"H@	c #A2A3A2",
"I@	c #C3C3C3",
"J@	c #5E5E5F",
"K@	c #121213",
"L@	c #424444",
"M@	c #585858",
"N@	c #C1C1C1",
"O@	c #515151",
"P@	c #444442",
"Q@	c #D4D4D5",
"R@	c #3F3E3F",
"S@	c #727272",
"T@	c #898989",
"U@	c #A0A0A1",
"V@	c #A9A8A8",
"W@	c #8D8D8D",
"X@	c #484848",
"Y@	c #A8A8A8",
"                                                                                                                                ",
"              . +                                                                                                               ",
"            @ . # $           %                                                                                                 ",
"          @ @ & * = -     @ @ ; > , '                                                                                           ",
"          @ @ . * ) $   ! @ @ ~ { ] ^ / ( @ _ ; : < [                                                                           ",
"            @ } | 1   @ @ @ @ ; 2 3 4 , @ @ 5 6 7 , 8 ] 9 @ 0 a b b }                                                           ",
"            c d e f   @ @ @ @ b 7 g [ @ h @ } i j k l d @ @ ( m n * o p q r                                                     ",
"            s t u v ! @ @ @ @ b w x @ y r @ } i 9 q @ @ @ @ ( z A B C D E e F                                                   ",
"        G H ( [ I J K @ & @ @ L F @ b M r ! c h N @ @ @ @ @ O P Q B R S T U V t                                                 ",
"      W X B @ Y Z `  .@ b @ @ ..+.@ @.M @ @ c & @ @ @ @ @ @ O #.[ $.R %.&.*.=.-.6                                               ",
"      M ;.>.@ ,.'.).!.y @ @ @ ~.M @ O M @ @ ! @ @ @ @ @ @ @ M {.].$.^./.I *.X (.V @                                             ",
"    _.:.' z @ Y <.[.4 }.O @ @ |.1.@ 1.@ @ @ @ @ @ @ @ @ @ @ r 6 ].2.3.4.I 5.6.[.(.7.                                            ",
"    8.(.}.@ s ,.9.0.a.Y b.c 5 c.s @ s @ @ @ @ @ @ @ @ @ @ @ r 6 d.2., e.I 5.f.[.(.g.                                            ",
"  P h.i.j.k.l.r m.n.5.o.m.& p.d.q.@ ~.! @ @ @ @ @ @ @ @ @ @ . m.a.r., e.s.^ f.[.(.f.P                                           ",
"  _ @ t.(.(.u.@ @ u.[.(.v.w.q | ].@ ; @ @ @ @ @ @ @ @ @ @ @ . m.9 r.x.y.Z z.A.[.(.0.B.                                          ",
"  5 @ C.(.(.^.@ D.3 (.(.P w.E.| C.@ y c @ @ @ @ @ @ @ @ @ @ . F.9 G.x.H.I.J.A.[.(.K.R                                           ",
"                L.M.N.A.|.5 i.O.P.2 @ Q.@ ! @ @ @ @ @ @ @ @ & F.R.S.T.U.V.J.W.[.(.K.C                                           ",
"              E u X.Y.Z.@ w.`.O. +f a.@ s @ @ @ @ @ @ @ @ @ & .+R.++@+u.#+$+W.[.(.0.*                                           ",
"              %+%+[.s.&+@ r D.O.*+=+k.-+@ c @ @ @ @ @ @ @ @ & .+;+++g >+,+$+'+[.(.W.)+                                          ",
"            =.!+~+{+ .d @ . D.O.>+=+` C . M @ @ @ @ @ @ @ @ w.]+;+7.^+/+(+g._+[.(.*.@                                           ",
"            -+Y ;+:+<+m.@ r D.O.>+=+G A |.[+( @ @ @ @ @ @ @ w.}+|+7.1+2+3+4+` ~+(.G.                                            ",
"          @ @ } @ 5+~+|.@ . D.O.*+=+H @ ~ 6+)+@ @ @ @ @ @ @ w.i |+7+1+>+3+v 8+(.u @                                             ",
"          z {.m i 9+9+@ @ & D.O.>+=+&.@ 0+a+w 6 @ @ @ @ @ @ b+i c+7+5+*+d+v A.'+0+                                              ",
"        W %+%+~+= h @ ! d y &+k u.e+f+@ d g+h+i+i @ @ @ @ @ 1.+.c+j+k+l+d+g.m+i.                                                ",
"        [.(.8.(.s.@.! n+k.o+p+p+q+W.r+@ L s+t+u+v+A @ @ @ @ 1.+.&+j+w+x+y+T z+                                                  ",
"      (.[.[.8.(.A+@ 9 X.1 e+e+!.%+B+5 @ |.a+,.u+e v+_ s C+@ c D+x E+w+n.1 F+                                                    ",
"      }.G.7.7+2.4.G+3+H+X.j.X.E I+P._ @ @.a+,.u+J+K+_ L+0+M+N+O+P+^.D V ` Q+7                                                   ",
"      @ @ ! @ d R+(.S+K.W K.8.$+T+U+@ @ ( V+W+u+X+Y+! L+m Z+j+`+ @.@H+5.` 0.k                                                   ",
"    @ ! c 5 @ +@(.8.(.(.[.[.(.@@#@b @ @ ( $@%@u+:.i ! L+z &@j+# J+*@j.^ 8+(.#                                                   ",
"    @ @ @ c @ =@[.W K.K.K.-@X ;@9 r @ @ >@$@%@u+^.@ ! L+z ,@j+# J+'@j.^ 8+(.3                                                   ",
"  @ @ @ @ @ c $ *.B.$.$.$.)@^.!@e 5 @ @ ( a+,.u+ .@ ! L+z ~@j+# J+{@j.^ 8+(.Z i.                                                ",
"                ]@5 5 ^@/@@ g (.(@@ c @ ( _@:@<@E+@ ! L+z O+j+# J+*@j.[@8+(.}@6                                                 ",
"                ! _ _ c s @ u %+U Y.Y.Y.Y.|@= 1@.+@ ! L+z ~@j+# J+.@j.2@8+~+(.h+W (.0.3@X X X 3@f.                              ",
"              @ @ @ @ _ @ F.4@Y.p+Y.Y.Y.5@4@(.f.@ @ ! L+z 6@j+# J+7@j.^ 8+~+(.++X (.8@o+o+o+o+m+m+                              ",
"              f 9@7@0@a@b@^.y.X.T T T T j.8@(.j.@ @ ! L+z c@j+# J+7@j.^ 8+~+(.P.o.(.) s.s.d@Z Z s.3+                            ",
"              (.(.(.[.!+(.=@o.E E u u u e@5.f@`+@ @ ! L+z 6@j+# J+g@j.^ 8+~+(.1 h@|@v e+V e+e+e+e+=+                            ",
"            [.!+=.=.S+[.i@=+K.W W W W W ` J+j@k@@ @ ! L+z l@j+# J+{@j.^ 8+~+(.!+a+=@m@n@=.S+S+S+S+S+~+                          ",
"            [.[.[.[.8.(.o+S+(.(.(.(.(.(.o@* u+5 @ @ ! L+z ,@j+# J+*@j.^ 8+~+(.(.i.<@p@q@(.(.(.(.(.(.(.                          ",
"          (.(.(.(.[.~+(.*.[.(.(.(.(.(.(.r@7 Y @ @ @ ! L+z c@j+# J+.@j.^ 8+~+(.(. .s@t@u@(.(.(.(.(.(.(.(.                        ",
"          l.m@v@:.:.v+3 w@0.0.0.0.x@x@).++w y@@ @ @ z@L+z A@j+# J+'@j.^ 8+~+(.(./ B@C@j+3@W.'+'+'+` ` q+                        ",
"        @ @ @ @ @ @ @ D@w+' E@E@F@# G@P.H+j.h+@ @ @ ! L+z R.j+# J+H@j.^ 8+~+(.(.= 7 I@I@=@$.B.;.;.;.;.J@                        ",
"        @ ! ! ! ! _ ! h ..L+L+L+@.K@. v+(.(.)+@ @ @ ! L+z l@j+# J+7@j.^ 8+~+(.(.(.9 (.(.e 1.@.@.@.@.@.L+..                      ",
"      @ @ @ @ @ @ ! ! ; s s s s s s @ g.(.!+L+@ @ @ ! L+z L@j+# J+7@j.^ 8+~+(.(.(.7+!+(.v @ } } } } } } }                       ",
"      @ @ @ @ @ @ _ @ @ @ @ @ @ @ @ ~.%+(.!.( @ @ @ ! L+z l@j+# J+g@j.^ 8+~+(.(.(.] !.(.R+D+@ @ @ @ @ @ @ @                     ",
"      @ @ @ @ @ @ @ @ @ @ @ @ @ @ @ M@~+(.n.& @ @ @ ! L+z 9 j+# J+'@j.^ 8+~+(.(.(.I@n.(.).7+@ @ @ @ @ @ @ @                     ",
"    @ @ @ @ @ @ r &+x z+z+z+&+&+&+q , u N@O@_ @ @ @ ! L+z 9 j+# J+g@j.^ 8+~+(.(.(.R+w &.Z x.;+t t t -+-+s@t  .                  ",
"                j+).(.(.(.(.(.(.(.(.a+@ @ @ @ @ @ @ ! L+z c@j+# J+*@j.^ 8+~+(.(.(.'+v.@ @ &+(.(.(.(.(.(.(.(.(.                  ",
"                  (.(.(.(.(.(.(.(.b.b @ @ @ @ @ @ @ ! L+z 9 j+# J+H@j.^ 8+~+(.(.(.0.7 @ @ +.!.(.(.(.(.(.(.(.(.(.                ",
"                (.(.(.(.(.(.(.(.(.P.& @ @ @ @ @ @ @ ! L+z 6@j+# J+.@j.^ 8+~+(.(.(.K.$.@ @ s @@(.(.(.(.(.(.(.(.(.                ",
"                (.(.(.(.(.(.(.(.(.7.@ @ @ @ @ @ @ @ ! L+z &@j+# J+7@j.^ 8+~+(.(.(.U ; @ @ @ h@[.(.(.(.(.(.(.(.(.                ",
"              (.(.(.(.(.(.(.(.(.w@F @ @ @ @ @ @ @ @ ! L+z P@j+# J+{@j.^ 8+~+(.(.-.F @ @ @ @ a.w@(.(.(.(.(.(.(.(.(.              ",
"              (.(.(.(.(.(.(.(.(.o.~.@ @ @ @ @ @ @ @ _ ..z O+j+# J+g@j.Q@f.(.).>.L @ @ @ @ @ O o@(.(.(.(.(.(.(.(.(.              ",
"            *+9+9+9+9+G+G+G+G+F+x+r.7+7+7.7.7.7.[ ; c M +.R@#@S@T@U@f V@W@+@+.X@$.$.$.B B B ;.y._.n.n.4.4.4.e.e.y.J+            ",
"            ( ( ( ( O O O O M b 4.=.0.0.).).).).).{+N@@ 5 } c 1.1.c c } @ !.%+W W W W W W W (.(@Q.1.1.1.s s s s s s             ",
"          @ @ @ @ @ @ @ @ @ @ h b.(.(.(.(.(.(.(.(.(.X.@ @ @ @ @ @ @ @ @ @ =+(.(.(.(.(.(.(.(.(.J.~.@ @ @ @ @ @ @ @ @ @           ",
"          @ @ @ @ @ @ @ @ @ @ D.~+(.(.(.(.(.(.(.(.(.9@@ @ @ @ @ @ @ @ @ @ Y@(.(.(.(.(.(.(.(.(.(.v.@ @ @ @ @ @ @ @ @ @           ",
"          @ @ @ @ @ @ @ @ @ c | (.(.(.(.(.(.(.(.(.(.v@@ @ @ @ @ @ @ @ @ @ ] (.(.(.(.(.(.(.(.(.(.$.@ @ @ @ @ @ @ @ @ @           ",
"        @ @ @ @ @ @ @ @ @ @ w.b@(.(.(.(.(.(.(.(.(.(.C.@ @ @ @ @ @ @ @ @ @ ' (.(.(.(.(.(.(.(.(.(.f @ @ @ @ @ @ @ @ @ @ @         ",
"        @ @ @ @ @ @ @ @ @ @ |.'+(.(.(.(.(.(.(.(.(.(.2 @ @ @ @ @ @ @ @ @ @ j+(.(.(.(.(.(.(.(.(.(.0.} @ @ @ @ @ @ @ @ @ @         ",
"      @ @ @ @ @ @ @ @ @ @ @ i.(.(.(.(.(.(.(.(.(.(.(.q @ @ @ @ @ @ @ @ @ @ |+(.(.(.(.(.(.(.(.(.(.(.F @ @ @ @ @ @ @ @ @ @ @       ",
"      @ @ @ @ @ @ @ @ @ @ @ l.(.(.(.(.(.(.(.(.(.(.(.y @ @ @ @ @ @ @ @ @ @ m.(.(.(.(.(.(.(.(.(.(.(.X+@ @ @ @ @ @ @ @ @ @ @       ",
"    @ @ @ @ @ @ @ @ @ @ @ @ v (.(.(.(.(.(.(.(.(.(.(.s @ @ @ @ @ @ @ @ @ @ |.(.(.(.(.(.(.(.(.(.(.(.*.@ @ @ @ @ @ @ @ @ @ @ @     ",
"                                                                                                                                ",
"                                                                                                                                "};
